<mxfile host="Electron" agent="Mozilla/5.0 (Macintosh; Intel Mac OS X 10_15_7) AppleWebKit/537.36 (KHTML, like Gecko) draw.io/28.1.2 Chrome/138.0.7204.243 Electron/37.4.0 Safari/537.36" version="28.1.2">
  <diagram name="第 1 页" id="Op_Hxy2KZqNl0zdX5QgX">
    <mxGraphModel dx="1182" dy="1007" grid="0" gridSize="10" guides="1" tooltips="1" connect="1" arrows="1" fold="1" page="1" pageScale="1" pageWidth="2339" pageHeight="3300" background="none" math="0" shadow="0">
      <root>
        <mxCell id="0" />
        <mxCell id="1" parent="0" />
        <mxCell id="wkMadTR8w1mrKC2IVPZv-110" value="" style="rounded=1;whiteSpace=wrap;html=1;fillColor=#bac8d3;strokeColor=#23445d;" vertex="1" parent="1">
          <mxGeometry x="318" y="692" width="865" height="560" as="geometry" />
        </mxCell>
        <mxCell id="wkMadTR8w1mrKC2IVPZv-116" style="edgeStyle=orthogonalEdgeStyle;rounded=0;orthogonalLoop=1;jettySize=auto;html=1;exitX=0.5;exitY=1;exitDx=0;exitDy=0;entryX=0.5;entryY=0;entryDx=0;entryDy=0;" edge="1" parent="1" source="wkMadTR8w1mrKC2IVPZv-101" target="wkMadTR8w1mrKC2IVPZv-91">
          <mxGeometry relative="1" as="geometry" />
        </mxCell>
        <mxCell id="wkMadTR8w1mrKC2IVPZv-118" style="edgeStyle=orthogonalEdgeStyle;rounded=0;orthogonalLoop=1;jettySize=auto;html=1;exitX=0.5;exitY=1;exitDx=0;exitDy=0;entryX=0.5;entryY=0;entryDx=0;entryDy=0;" edge="1" parent="1" source="wkMadTR8w1mrKC2IVPZv-101" target="wkMadTR8w1mrKC2IVPZv-90">
          <mxGeometry relative="1" as="geometry" />
        </mxCell>
        <mxCell id="wkMadTR8w1mrKC2IVPZv-119" style="edgeStyle=orthogonalEdgeStyle;rounded=0;orthogonalLoop=1;jettySize=auto;html=1;exitX=0.5;exitY=1;exitDx=0;exitDy=0;entryX=0.5;entryY=0;entryDx=0;entryDy=0;" edge="1" parent="1" source="wkMadTR8w1mrKC2IVPZv-101" target="wkMadTR8w1mrKC2IVPZv-92">
          <mxGeometry relative="1" as="geometry" />
        </mxCell>
        <mxCell id="wkMadTR8w1mrKC2IVPZv-122" style="edgeStyle=orthogonalEdgeStyle;rounded=0;orthogonalLoop=1;jettySize=auto;html=1;exitX=0.5;exitY=1;exitDx=0;exitDy=0;entryX=0.5;entryY=0;entryDx=0;entryDy=0;" edge="1" parent="1" source="wkMadTR8w1mrKC2IVPZv-101" target="wkMadTR8w1mrKC2IVPZv-103">
          <mxGeometry relative="1" as="geometry">
            <Array as="points">
              <mxPoint x="770" y="1033" />
              <mxPoint x="973" y="1033" />
            </Array>
          </mxGeometry>
        </mxCell>
        <mxCell id="wkMadTR8w1mrKC2IVPZv-101" value="" style="rounded=1;whiteSpace=wrap;html=1;fillColor=#b0e3e6;strokeColor=#0e8088;" vertex="1" parent="1">
          <mxGeometry x="403.5" y="716" width="732" height="296" as="geometry" />
        </mxCell>
        <mxCell id="ODwu-5jBPMra2QIRM7yy-1" value="" style="whiteSpace=wrap;html=1;aspect=fixed;fillColor=#ffe6cc;strokeColor=#d79b00;" parent="1" vertex="1">
          <mxGeometry x="738.5" y="126" width="239" height="239" as="geometry" />
        </mxCell>
        <mxCell id="wkMadTR8w1mrKC2IVPZv-1" value="&lt;font style=&quot;font-size: 24px;&quot;&gt;Server&lt;/font&gt;" style="text;html=1;align=center;verticalAlign=middle;whiteSpace=wrap;rounded=0;" vertex="1" parent="1">
          <mxGeometry x="811" y="132.5" width="100" height="30" as="geometry" />
        </mxCell>
        <mxCell id="wkMadTR8w1mrKC2IVPZv-2" value="&lt;font style=&quot;font-size: 14px;&quot;&gt;MySQL&lt;/font&gt;" style="shape=cylinder3;whiteSpace=wrap;html=1;boundedLbl=1;backgroundOutline=1;size=15;fillColor=#dae8fc;strokeColor=#6c8ebf;" vertex="1" parent="1">
          <mxGeometry x="744.5" y="195.5" width="60" height="80" as="geometry" />
        </mxCell>
        <mxCell id="wkMadTR8w1mrKC2IVPZv-3" value="&lt;font style=&quot;font-size: 14px;&quot;&gt;Redis&lt;/font&gt;" style="shape=hexagon;perimeter=hexagonPerimeter2;whiteSpace=wrap;html=1;fixedSize=1;fillColor=#d5e8d4;strokeColor=#82b366;" vertex="1" parent="1">
          <mxGeometry x="744.5" y="306.5" width="76" height="50" as="geometry" />
        </mxCell>
        <mxCell id="wkMadTR8w1mrKC2IVPZv-5" value="&lt;font style=&quot;font-size: 14px;&quot;&gt;192.168.24.1&lt;/font&gt;" style="text;html=1;align=center;verticalAlign=middle;whiteSpace=wrap;rounded=0;" vertex="1" parent="1">
          <mxGeometry x="800.5" y="96" width="115" height="30" as="geometry" />
        </mxCell>
        <mxCell id="wkMadTR8w1mrKC2IVPZv-15" style="edgeStyle=orthogonalEdgeStyle;rounded=0;orthogonalLoop=1;jettySize=auto;html=1;entryX=0;entryY=0.5;entryDx=0;entryDy=0;" edge="1" parent="1" source="wkMadTR8w1mrKC2IVPZv-6" target="wkMadTR8w1mrKC2IVPZv-12">
          <mxGeometry relative="1" as="geometry" />
        </mxCell>
        <mxCell id="wkMadTR8w1mrKC2IVPZv-6" value="&lt;font style=&quot;font-size: 24px;&quot;&gt;Browser&lt;/font&gt;" style="shape=umlActor;verticalLabelPosition=bottom;verticalAlign=top;html=1;outlineConnect=0;" vertex="1" parent="1">
          <mxGeometry x="479.5" y="215.5" width="30" height="60" as="geometry" />
        </mxCell>
        <mxCell id="wkMadTR8w1mrKC2IVPZv-24" style="edgeStyle=orthogonalEdgeStyle;rounded=0;orthogonalLoop=1;jettySize=auto;html=1;exitX=1;exitY=0.5;exitDx=0;exitDy=0;entryX=0;entryY=0.5;entryDx=0;entryDy=0;" edge="1" parent="1" source="wkMadTR8w1mrKC2IVPZv-12" target="ODwu-5jBPMra2QIRM7yy-1">
          <mxGeometry relative="1" as="geometry" />
        </mxCell>
        <mxCell id="wkMadTR8w1mrKC2IVPZv-12" value="&lt;font style=&quot;font-size: 24px;&quot;&gt;DNS&lt;/font&gt;" style="shape=process;whiteSpace=wrap;html=1;backgroundOutline=1;fillColor=#f5f5f5;strokeColor=#666666;fontColor=#333333;" vertex="1" parent="1">
          <mxGeometry x="580.5" y="215.5" width="120" height="60" as="geometry" />
        </mxCell>
        <mxCell id="wkMadTR8w1mrKC2IVPZv-16" value="dasi.plus" style="text;html=1;align=center;verticalAlign=middle;resizable=0;points=[];autosize=1;strokeColor=none;fillColor=none;" vertex="1" parent="1">
          <mxGeometry x="608" y="183.5" width="65" height="26" as="geometry" />
        </mxCell>
        <mxCell id="wkMadTR8w1mrKC2IVPZv-23" value="" style="ellipse;whiteSpace=wrap;html=1;aspect=fixed;fillColor=#fff2cc;strokeColor=#d6b656;" vertex="1" parent="1">
          <mxGeometry x="813" y="175.5" width="160" height="160" as="geometry" />
        </mxCell>
        <mxCell id="wkMadTR8w1mrKC2IVPZv-17" value="&lt;font style=&quot;font-size: 14px;&quot;&gt;Tomcat&lt;/font&gt;" style="text;html=1;align=center;verticalAlign=middle;whiteSpace=wrap;rounded=0;" vertex="1" parent="1">
          <mxGeometry x="863" y="189.5" width="60" height="30" as="geometry" />
        </mxCell>
        <mxCell id="wkMadTR8w1mrKC2IVPZv-18" value="Order" style="rounded=1;whiteSpace=wrap;html=1;fillColor=#f8cecc;strokeColor=#b85450;" vertex="1" parent="1">
          <mxGeometry x="835.5" y="226.5" width="51" height="27" as="geometry" />
        </mxCell>
        <mxCell id="wkMadTR8w1mrKC2IVPZv-19" value="Pay" style="rounded=1;whiteSpace=wrap;html=1;fillColor=#f8cecc;strokeColor=#b85450;" vertex="1" parent="1">
          <mxGeometry x="898.5" y="226.5" width="51" height="27" as="geometry" />
        </mxCell>
        <mxCell id="wkMadTR8w1mrKC2IVPZv-21" value="Goods" style="rounded=1;whiteSpace=wrap;html=1;fillColor=#f8cecc;strokeColor=#b85450;" vertex="1" parent="1">
          <mxGeometry x="898.5" y="272.5" width="51" height="27" as="geometry" />
        </mxCell>
        <mxCell id="wkMadTR8w1mrKC2IVPZv-22" value="User" style="rounded=1;whiteSpace=wrap;html=1;fillColor=#f8cecc;strokeColor=#b85450;" vertex="1" parent="1">
          <mxGeometry x="835.5" y="272.5" width="51" height="27" as="geometry" />
        </mxCell>
        <mxCell id="wkMadTR8w1mrKC2IVPZv-26" value="&lt;font style=&quot;font-size: 14px;&quot;&gt;172.16.129.10&lt;/font&gt;" style="text;html=1;align=center;verticalAlign=middle;whiteSpace=wrap;rounded=0;" vertex="1" parent="1">
          <mxGeometry x="437" y="179.5" width="115" height="30" as="geometry" />
        </mxCell>
        <mxCell id="wkMadTR8w1mrKC2IVPZv-27" style="edgeStyle=orthogonalEdgeStyle;rounded=0;orthogonalLoop=1;jettySize=auto;html=1;entryX=0;entryY=0.5;entryDx=0;entryDy=0;" edge="1" parent="1" source="wkMadTR8w1mrKC2IVPZv-28" target="wkMadTR8w1mrKC2IVPZv-29">
          <mxGeometry relative="1" as="geometry" />
        </mxCell>
        <mxCell id="wkMadTR8w1mrKC2IVPZv-28" value="&lt;font style=&quot;font-size: 24px;&quot;&gt;Browser&lt;/font&gt;" style="shape=umlActor;verticalLabelPosition=bottom;verticalAlign=top;html=1;outlineConnect=0;" vertex="1" parent="1">
          <mxGeometry x="429.5" y="480" width="30" height="60" as="geometry" />
        </mxCell>
        <mxCell id="wkMadTR8w1mrKC2IVPZv-100" style="edgeStyle=orthogonalEdgeStyle;rounded=0;orthogonalLoop=1;jettySize=auto;html=1;exitX=1;exitY=0.5;exitDx=0;exitDy=0;entryX=0;entryY=0.5;entryDx=0;entryDy=0;" edge="1" parent="1" source="wkMadTR8w1mrKC2IVPZv-29" target="wkMadTR8w1mrKC2IVPZv-99">
          <mxGeometry relative="1" as="geometry" />
        </mxCell>
        <mxCell id="wkMadTR8w1mrKC2IVPZv-29" value="&lt;font style=&quot;font-size: 24px;&quot;&gt;DNS&lt;/font&gt;" style="shape=process;whiteSpace=wrap;html=1;backgroundOutline=1;fillColor=#f5f5f5;strokeColor=#666666;fontColor=#333333;" vertex="1" parent="1">
          <mxGeometry x="530.5" y="480" width="120" height="60" as="geometry" />
        </mxCell>
        <mxCell id="wkMadTR8w1mrKC2IVPZv-30" value="dasi.plus" style="text;html=1;align=center;verticalAlign=middle;resizable=0;points=[];autosize=1;strokeColor=none;fillColor=none;" vertex="1" parent="1">
          <mxGeometry x="558" y="448" width="65" height="26" as="geometry" />
        </mxCell>
        <mxCell id="wkMadTR8w1mrKC2IVPZv-31" value="&lt;font style=&quot;font-size: 14px;&quot;&gt;172.16.129.10&lt;/font&gt;" style="text;html=1;align=center;verticalAlign=middle;whiteSpace=wrap;rounded=0;" vertex="1" parent="1">
          <mxGeometry x="387" y="444" width="115" height="30" as="geometry" />
        </mxCell>
        <mxCell id="wkMadTR8w1mrKC2IVPZv-32" value="" style="whiteSpace=wrap;html=1;aspect=fixed;fillColor=#ffe6cc;strokeColor=#d79b00;" vertex="1" parent="1">
          <mxGeometry x="441" y="774" width="209" height="209" as="geometry" />
        </mxCell>
        <mxCell id="wkMadTR8w1mrKC2IVPZv-33" value="&lt;font style=&quot;font-size: 24px;&quot;&gt;Server&lt;/font&gt;" style="text;html=1;align=center;verticalAlign=middle;whiteSpace=wrap;rounded=0;" vertex="1" parent="1">
          <mxGeometry x="492" y="780" width="100" height="30" as="geometry" />
        </mxCell>
        <mxCell id="wkMadTR8w1mrKC2IVPZv-36" value="&lt;font style=&quot;font-size: 14px;&quot;&gt;192.168.24.1&lt;/font&gt;" style="text;html=1;align=center;verticalAlign=middle;whiteSpace=wrap;rounded=0;" vertex="1" parent="1">
          <mxGeometry x="488" y="741" width="115" height="30" as="geometry" />
        </mxCell>
        <mxCell id="wkMadTR8w1mrKC2IVPZv-43" value="" style="group" vertex="1" connectable="0" parent="1">
          <mxGeometry x="465.5" y="813" width="160" height="160" as="geometry" />
        </mxCell>
        <mxCell id="wkMadTR8w1mrKC2IVPZv-37" value="" style="ellipse;whiteSpace=wrap;html=1;aspect=fixed;fillColor=#fff2cc;strokeColor=#d6b656;" vertex="1" parent="wkMadTR8w1mrKC2IVPZv-43">
          <mxGeometry width="160" height="160" as="geometry" />
        </mxCell>
        <mxCell id="wkMadTR8w1mrKC2IVPZv-38" value="&lt;font style=&quot;font-size: 14px;&quot;&gt;Tomcat&lt;/font&gt;" style="text;html=1;align=center;verticalAlign=middle;whiteSpace=wrap;rounded=0;" vertex="1" parent="wkMadTR8w1mrKC2IVPZv-43">
          <mxGeometry x="50" y="14" width="60" height="30" as="geometry" />
        </mxCell>
        <mxCell id="wkMadTR8w1mrKC2IVPZv-39" value="Order" style="rounded=1;whiteSpace=wrap;html=1;fillColor=#f8cecc;strokeColor=#b85450;" vertex="1" parent="wkMadTR8w1mrKC2IVPZv-43">
          <mxGeometry x="22.5" y="51" width="51" height="27" as="geometry" />
        </mxCell>
        <mxCell id="wkMadTR8w1mrKC2IVPZv-40" value="Pay" style="rounded=1;whiteSpace=wrap;html=1;fillColor=#f8cecc;strokeColor=#b85450;" vertex="1" parent="wkMadTR8w1mrKC2IVPZv-43">
          <mxGeometry x="85.5" y="51" width="51" height="27" as="geometry" />
        </mxCell>
        <mxCell id="wkMadTR8w1mrKC2IVPZv-41" value="Goods" style="rounded=1;whiteSpace=wrap;html=1;fillColor=#f8cecc;strokeColor=#b85450;" vertex="1" parent="wkMadTR8w1mrKC2IVPZv-43">
          <mxGeometry x="85.5" y="97" width="51" height="27" as="geometry" />
        </mxCell>
        <mxCell id="wkMadTR8w1mrKC2IVPZv-42" value="User" style="rounded=1;whiteSpace=wrap;html=1;fillColor=#f8cecc;strokeColor=#b85450;" vertex="1" parent="wkMadTR8w1mrKC2IVPZv-43">
          <mxGeometry x="22.5" y="97" width="51" height="27" as="geometry" />
        </mxCell>
        <mxCell id="wkMadTR8w1mrKC2IVPZv-45" value="" style="whiteSpace=wrap;html=1;aspect=fixed;fillColor=#ffe6cc;strokeColor=#d79b00;" vertex="1" parent="1">
          <mxGeometry x="672.5" y="774" width="209" height="209" as="geometry" />
        </mxCell>
        <mxCell id="wkMadTR8w1mrKC2IVPZv-46" value="&lt;font style=&quot;font-size: 24px;&quot;&gt;Server&lt;/font&gt;" style="text;html=1;align=center;verticalAlign=middle;whiteSpace=wrap;rounded=0;" vertex="1" parent="1">
          <mxGeometry x="723.5" y="780" width="100" height="30" as="geometry" />
        </mxCell>
        <mxCell id="wkMadTR8w1mrKC2IVPZv-47" value="&lt;font style=&quot;font-size: 14px;&quot;&gt;192.168.24.2&lt;/font&gt;" style="text;html=1;align=center;verticalAlign=middle;whiteSpace=wrap;rounded=0;" vertex="1" parent="1">
          <mxGeometry x="719.5" y="741" width="115" height="30" as="geometry" />
        </mxCell>
        <mxCell id="wkMadTR8w1mrKC2IVPZv-48" value="" style="group" vertex="1" connectable="0" parent="1">
          <mxGeometry x="697" y="813" width="160" height="160" as="geometry" />
        </mxCell>
        <mxCell id="wkMadTR8w1mrKC2IVPZv-49" value="" style="ellipse;whiteSpace=wrap;html=1;aspect=fixed;fillColor=#fff2cc;strokeColor=#d6b656;" vertex="1" parent="wkMadTR8w1mrKC2IVPZv-48">
          <mxGeometry width="160" height="160" as="geometry" />
        </mxCell>
        <mxCell id="wkMadTR8w1mrKC2IVPZv-50" value="&lt;font style=&quot;font-size: 14px;&quot;&gt;Tomcat&lt;/font&gt;" style="text;html=1;align=center;verticalAlign=middle;whiteSpace=wrap;rounded=0;" vertex="1" parent="wkMadTR8w1mrKC2IVPZv-48">
          <mxGeometry x="50" y="14" width="60" height="30" as="geometry" />
        </mxCell>
        <mxCell id="wkMadTR8w1mrKC2IVPZv-51" value="Order" style="rounded=1;whiteSpace=wrap;html=1;fillColor=#f8cecc;strokeColor=#b85450;" vertex="1" parent="wkMadTR8w1mrKC2IVPZv-48">
          <mxGeometry x="22.5" y="51" width="51" height="27" as="geometry" />
        </mxCell>
        <mxCell id="wkMadTR8w1mrKC2IVPZv-52" value="Pay" style="rounded=1;whiteSpace=wrap;html=1;fillColor=#f8cecc;strokeColor=#b85450;" vertex="1" parent="wkMadTR8w1mrKC2IVPZv-48">
          <mxGeometry x="85.5" y="51" width="51" height="27" as="geometry" />
        </mxCell>
        <mxCell id="wkMadTR8w1mrKC2IVPZv-53" value="Goods" style="rounded=1;whiteSpace=wrap;html=1;fillColor=#f8cecc;strokeColor=#b85450;" vertex="1" parent="wkMadTR8w1mrKC2IVPZv-48">
          <mxGeometry x="85.5" y="97" width="51" height="27" as="geometry" />
        </mxCell>
        <mxCell id="wkMadTR8w1mrKC2IVPZv-54" value="User" style="rounded=1;whiteSpace=wrap;html=1;fillColor=#f8cecc;strokeColor=#b85450;" vertex="1" parent="wkMadTR8w1mrKC2IVPZv-48">
          <mxGeometry x="22.5" y="97" width="51" height="27" as="geometry" />
        </mxCell>
        <mxCell id="wkMadTR8w1mrKC2IVPZv-66" value="" style="whiteSpace=wrap;html=1;aspect=fixed;fillColor=#ffe6cc;strokeColor=#d79b00;" vertex="1" parent="1">
          <mxGeometry x="905" y="774" width="209" height="209" as="geometry" />
        </mxCell>
        <mxCell id="wkMadTR8w1mrKC2IVPZv-67" value="&lt;font style=&quot;font-size: 24px;&quot;&gt;Server&lt;/font&gt;" style="text;html=1;align=center;verticalAlign=middle;whiteSpace=wrap;rounded=0;" vertex="1" parent="1">
          <mxGeometry x="956" y="780" width="100" height="30" as="geometry" />
        </mxCell>
        <mxCell id="wkMadTR8w1mrKC2IVPZv-68" value="&lt;font style=&quot;font-size: 14px;&quot;&gt;192.168.24.3&lt;/font&gt;" style="text;html=1;align=center;verticalAlign=middle;whiteSpace=wrap;rounded=0;" vertex="1" parent="1">
          <mxGeometry x="952" y="741" width="115" height="30" as="geometry" />
        </mxCell>
        <mxCell id="wkMadTR8w1mrKC2IVPZv-69" value="" style="group" vertex="1" connectable="0" parent="1">
          <mxGeometry x="929.5" y="813" width="160" height="160" as="geometry" />
        </mxCell>
        <mxCell id="wkMadTR8w1mrKC2IVPZv-70" value="" style="ellipse;whiteSpace=wrap;html=1;aspect=fixed;fillColor=#fff2cc;strokeColor=#d6b656;" vertex="1" parent="wkMadTR8w1mrKC2IVPZv-69">
          <mxGeometry width="160" height="160" as="geometry" />
        </mxCell>
        <mxCell id="wkMadTR8w1mrKC2IVPZv-71" value="&lt;font style=&quot;font-size: 14px;&quot;&gt;Tomcat&lt;/font&gt;" style="text;html=1;align=center;verticalAlign=middle;whiteSpace=wrap;rounded=0;" vertex="1" parent="wkMadTR8w1mrKC2IVPZv-69">
          <mxGeometry x="50" y="14" width="60" height="30" as="geometry" />
        </mxCell>
        <mxCell id="wkMadTR8w1mrKC2IVPZv-72" value="Order" style="rounded=1;whiteSpace=wrap;html=1;fillColor=#f8cecc;strokeColor=#b85450;" vertex="1" parent="wkMadTR8w1mrKC2IVPZv-69">
          <mxGeometry x="22.5" y="51" width="51" height="27" as="geometry" />
        </mxCell>
        <mxCell id="wkMadTR8w1mrKC2IVPZv-73" value="Pay" style="rounded=1;whiteSpace=wrap;html=1;fillColor=#f8cecc;strokeColor=#b85450;" vertex="1" parent="wkMadTR8w1mrKC2IVPZv-69">
          <mxGeometry x="85.5" y="51" width="51" height="27" as="geometry" />
        </mxCell>
        <mxCell id="wkMadTR8w1mrKC2IVPZv-74" value="Goods" style="rounded=1;whiteSpace=wrap;html=1;fillColor=#f8cecc;strokeColor=#b85450;" vertex="1" parent="wkMadTR8w1mrKC2IVPZv-69">
          <mxGeometry x="85.5" y="97" width="51" height="27" as="geometry" />
        </mxCell>
        <mxCell id="wkMadTR8w1mrKC2IVPZv-75" value="User" style="rounded=1;whiteSpace=wrap;html=1;fillColor=#f8cecc;strokeColor=#b85450;" vertex="1" parent="wkMadTR8w1mrKC2IVPZv-69">
          <mxGeometry x="22.5" y="97" width="51" height="27" as="geometry" />
        </mxCell>
        <mxCell id="wkMadTR8w1mrKC2IVPZv-111" style="edgeStyle=orthogonalEdgeStyle;rounded=0;orthogonalLoop=1;jettySize=auto;html=1;exitX=0.5;exitY=1;exitDx=0;exitDy=0;entryX=0.5;entryY=0;entryDx=0;entryDy=0;" edge="1" parent="1" source="wkMadTR8w1mrKC2IVPZv-99" target="wkMadTR8w1mrKC2IVPZv-36">
          <mxGeometry relative="1" as="geometry" />
        </mxCell>
        <mxCell id="wkMadTR8w1mrKC2IVPZv-112" style="edgeStyle=orthogonalEdgeStyle;rounded=0;orthogonalLoop=1;jettySize=auto;html=1;exitX=0.5;exitY=1;exitDx=0;exitDy=0;" edge="1" parent="1" source="wkMadTR8w1mrKC2IVPZv-99" target="wkMadTR8w1mrKC2IVPZv-47">
          <mxGeometry relative="1" as="geometry" />
        </mxCell>
        <mxCell id="wkMadTR8w1mrKC2IVPZv-113" style="edgeStyle=orthogonalEdgeStyle;rounded=0;orthogonalLoop=1;jettySize=auto;html=1;exitX=0.5;exitY=1;exitDx=0;exitDy=0;" edge="1" parent="1" source="wkMadTR8w1mrKC2IVPZv-99" target="wkMadTR8w1mrKC2IVPZv-68">
          <mxGeometry relative="1" as="geometry" />
        </mxCell>
        <mxCell id="wkMadTR8w1mrKC2IVPZv-99" value="&lt;font style=&quot;font-size: 24px;&quot;&gt;Nginx&lt;/font&gt;" style="rhombus;whiteSpace=wrap;html=1;fillColor=#e1d5e7;strokeColor=#9673a6;" vertex="1" parent="1">
          <mxGeometry x="706.25" y="446" width="141.5" height="128" as="geometry" />
        </mxCell>
        <mxCell id="wkMadTR8w1mrKC2IVPZv-105" value="" style="group" vertex="1" connectable="0" parent="1">
          <mxGeometry x="807" y="1074" width="343.5" height="135.5" as="geometry" />
        </mxCell>
        <mxCell id="wkMadTR8w1mrKC2IVPZv-103" value="" style="rounded=1;whiteSpace=wrap;html=1;fillColor=#b0e3e6;strokeColor=#0e8088;" vertex="1" parent="wkMadTR8w1mrKC2IVPZv-105">
          <mxGeometry x="-12.5" y="-8" width="356" height="143.5" as="geometry" />
        </mxCell>
        <mxCell id="wkMadTR8w1mrKC2IVPZv-81" value="" style="whiteSpace=wrap;html=1;aspect=fixed;fillColor=#ffe6cc;strokeColor=#d79b00;" vertex="1" parent="wkMadTR8w1mrKC2IVPZv-105">
          <mxGeometry x="9.5" y="30" width="96" height="96" as="geometry" />
        </mxCell>
        <mxCell id="wkMadTR8w1mrKC2IVPZv-35" value="&lt;font style=&quot;font-size: 14px;&quot;&gt;Redis&lt;/font&gt;" style="shape=hexagon;perimeter=hexagonPerimeter2;whiteSpace=wrap;html=1;fixedSize=1;fillColor=#d5e8d4;strokeColor=#82b366;" vertex="1" parent="wkMadTR8w1mrKC2IVPZv-105">
          <mxGeometry x="19.5" y="73" width="76" height="50" as="geometry" />
        </mxCell>
        <mxCell id="wkMadTR8w1mrKC2IVPZv-83" value="" style="whiteSpace=wrap;html=1;aspect=fixed;fillColor=#ffe6cc;strokeColor=#d79b00;" vertex="1" parent="wkMadTR8w1mrKC2IVPZv-105">
          <mxGeometry x="117.5" y="30" width="96" height="96" as="geometry" />
        </mxCell>
        <mxCell id="wkMadTR8w1mrKC2IVPZv-84" value="&lt;font style=&quot;font-size: 14px;&quot;&gt;Redis&lt;/font&gt;" style="shape=hexagon;perimeter=hexagonPerimeter2;whiteSpace=wrap;html=1;fixedSize=1;fillColor=#d5e8d4;strokeColor=#82b366;" vertex="1" parent="wkMadTR8w1mrKC2IVPZv-105">
          <mxGeometry x="127.5" y="73" width="76" height="50" as="geometry" />
        </mxCell>
        <mxCell id="wkMadTR8w1mrKC2IVPZv-85" value="" style="whiteSpace=wrap;html=1;aspect=fixed;fillColor=#ffe6cc;strokeColor=#d79b00;" vertex="1" parent="wkMadTR8w1mrKC2IVPZv-105">
          <mxGeometry x="222.5" y="30" width="96" height="96" as="geometry" />
        </mxCell>
        <mxCell id="wkMadTR8w1mrKC2IVPZv-86" value="&lt;font style=&quot;font-size: 14px;&quot;&gt;Redis&lt;/font&gt;" style="shape=hexagon;perimeter=hexagonPerimeter2;whiteSpace=wrap;html=1;fixedSize=1;fillColor=#d5e8d4;strokeColor=#82b366;" vertex="1" parent="wkMadTR8w1mrKC2IVPZv-105">
          <mxGeometry x="232.5" y="73" width="76" height="50" as="geometry" />
        </mxCell>
        <mxCell id="wkMadTR8w1mrKC2IVPZv-93" value="&lt;font style=&quot;font-size: 14px;&quot;&gt;192.168.24.7&lt;/font&gt;" style="text;html=1;align=center;verticalAlign=middle;whiteSpace=wrap;rounded=0;" vertex="1" parent="wkMadTR8w1mrKC2IVPZv-105">
          <mxGeometry width="115" height="30" as="geometry" />
        </mxCell>
        <mxCell id="wkMadTR8w1mrKC2IVPZv-94" value="&lt;font style=&quot;font-size: 14px;&quot;&gt;192.168.24.8&lt;/font&gt;" style="text;html=1;align=center;verticalAlign=middle;whiteSpace=wrap;rounded=0;" vertex="1" parent="wkMadTR8w1mrKC2IVPZv-105">
          <mxGeometry x="108" width="115" height="30" as="geometry" />
        </mxCell>
        <mxCell id="wkMadTR8w1mrKC2IVPZv-95" value="&lt;font style=&quot;font-size: 14px;&quot;&gt;192.168.24.9&lt;/font&gt;" style="text;html=1;align=center;verticalAlign=middle;whiteSpace=wrap;rounded=0;" vertex="1" parent="wkMadTR8w1mrKC2IVPZv-105">
          <mxGeometry x="213" width="115" height="30" as="geometry" />
        </mxCell>
        <mxCell id="wkMadTR8w1mrKC2IVPZv-96" value="&lt;font style=&quot;font-size: 24px;&quot;&gt;Server&lt;/font&gt;" style="text;html=1;align=center;verticalAlign=middle;whiteSpace=wrap;rounded=0;" vertex="1" parent="wkMadTR8w1mrKC2IVPZv-105">
          <mxGeometry x="7.5" y="34" width="100" height="30" as="geometry" />
        </mxCell>
        <mxCell id="wkMadTR8w1mrKC2IVPZv-97" value="&lt;font style=&quot;font-size: 24px;&quot;&gt;Server&lt;/font&gt;" style="text;html=1;align=center;verticalAlign=middle;whiteSpace=wrap;rounded=0;" vertex="1" parent="wkMadTR8w1mrKC2IVPZv-105">
          <mxGeometry x="113.5" y="34" width="100" height="30" as="geometry" />
        </mxCell>
        <mxCell id="wkMadTR8w1mrKC2IVPZv-98" value="&lt;font style=&quot;font-size: 24px;&quot;&gt;Server&lt;/font&gt;" style="text;html=1;align=center;verticalAlign=middle;whiteSpace=wrap;rounded=0;" vertex="1" parent="wkMadTR8w1mrKC2IVPZv-105">
          <mxGeometry x="218.5" y="34" width="100" height="30" as="geometry" />
        </mxCell>
        <mxCell id="wkMadTR8w1mrKC2IVPZv-108" value="" style="group" vertex="1" connectable="0" parent="1">
          <mxGeometry x="344" y="1050" width="427" height="174" as="geometry" />
        </mxCell>
        <mxCell id="wkMadTR8w1mrKC2IVPZv-102" value="" style="rounded=1;whiteSpace=wrap;html=1;fillColor=#b0e3e6;strokeColor=#0e8088;" vertex="1" parent="wkMadTR8w1mrKC2IVPZv-108">
          <mxGeometry width="427" height="174" as="geometry" />
        </mxCell>
        <mxCell id="wkMadTR8w1mrKC2IVPZv-76" value="" style="whiteSpace=wrap;html=1;aspect=fixed;fillColor=#ffe6cc;strokeColor=#d79b00;" vertex="1" parent="wkMadTR8w1mrKC2IVPZv-108">
          <mxGeometry x="18" y="34" width="123" height="123" as="geometry" />
        </mxCell>
        <mxCell id="wkMadTR8w1mrKC2IVPZv-34" value="&lt;font style=&quot;font-size: 14px;&quot;&gt;MySQL&lt;/font&gt;" style="shape=cylinder3;whiteSpace=wrap;html=1;boundedLbl=1;backgroundOutline=1;size=15;fillColor=#dae8fc;strokeColor=#6c8ebf;" vertex="1" parent="wkMadTR8w1mrKC2IVPZv-108">
          <mxGeometry x="49.5" y="74" width="60" height="80" as="geometry" />
        </mxCell>
        <mxCell id="wkMadTR8w1mrKC2IVPZv-77" value="" style="whiteSpace=wrap;html=1;aspect=fixed;fillColor=#ffe6cc;strokeColor=#d79b00;" vertex="1" parent="wkMadTR8w1mrKC2IVPZv-108">
          <mxGeometry x="154.5" y="34" width="123" height="123" as="geometry" />
        </mxCell>
        <mxCell id="wkMadTR8w1mrKC2IVPZv-78" value="&lt;font style=&quot;font-size: 14px;&quot;&gt;MySQL&lt;/font&gt;" style="shape=cylinder3;whiteSpace=wrap;html=1;boundedLbl=1;backgroundOutline=1;size=15;fillColor=#dae8fc;strokeColor=#6c8ebf;" vertex="1" parent="wkMadTR8w1mrKC2IVPZv-108">
          <mxGeometry x="186" y="74" width="60" height="80" as="geometry" />
        </mxCell>
        <mxCell id="wkMadTR8w1mrKC2IVPZv-79" value="" style="whiteSpace=wrap;html=1;aspect=fixed;fillColor=#ffe6cc;strokeColor=#d79b00;" vertex="1" parent="wkMadTR8w1mrKC2IVPZv-108">
          <mxGeometry x="289" y="34" width="123" height="123" as="geometry" />
        </mxCell>
        <mxCell id="wkMadTR8w1mrKC2IVPZv-80" value="&lt;font style=&quot;font-size: 14px;&quot;&gt;MySQL&lt;/font&gt;" style="shape=cylinder3;whiteSpace=wrap;html=1;boundedLbl=1;backgroundOutline=1;size=15;fillColor=#dae8fc;strokeColor=#6c8ebf;" vertex="1" parent="wkMadTR8w1mrKC2IVPZv-108">
          <mxGeometry x="320.5" y="74" width="60" height="80" as="geometry" />
        </mxCell>
        <mxCell id="wkMadTR8w1mrKC2IVPZv-87" value="&lt;font style=&quot;font-size: 24px;&quot;&gt;Server&lt;/font&gt;" style="text;html=1;align=center;verticalAlign=middle;whiteSpace=wrap;rounded=0;" vertex="1" parent="wkMadTR8w1mrKC2IVPZv-108">
          <mxGeometry x="29.5" y="38" width="100" height="30" as="geometry" />
        </mxCell>
        <mxCell id="wkMadTR8w1mrKC2IVPZv-88" value="&lt;font style=&quot;font-size: 24px;&quot;&gt;Server&lt;/font&gt;" style="text;html=1;align=center;verticalAlign=middle;whiteSpace=wrap;rounded=0;" vertex="1" parent="wkMadTR8w1mrKC2IVPZv-108">
          <mxGeometry x="166" y="38" width="100" height="30" as="geometry" />
        </mxCell>
        <mxCell id="wkMadTR8w1mrKC2IVPZv-89" value="&lt;font style=&quot;font-size: 24px;&quot;&gt;Server&lt;/font&gt;" style="text;html=1;align=center;verticalAlign=middle;whiteSpace=wrap;rounded=0;" vertex="1" parent="wkMadTR8w1mrKC2IVPZv-108">
          <mxGeometry x="300.5" y="38" width="100" height="30" as="geometry" />
        </mxCell>
        <mxCell id="wkMadTR8w1mrKC2IVPZv-90" value="&lt;font style=&quot;font-size: 14px;&quot;&gt;192.168.24.4&lt;/font&gt;" style="text;html=1;align=center;verticalAlign=middle;whiteSpace=wrap;rounded=0;" vertex="1" parent="wkMadTR8w1mrKC2IVPZv-108">
          <mxGeometry x="22" y="4" width="115" height="30" as="geometry" />
        </mxCell>
        <mxCell id="wkMadTR8w1mrKC2IVPZv-91" value="&lt;font style=&quot;font-size: 14px;&quot;&gt;192.168.24.5&lt;/font&gt;" style="text;html=1;align=center;verticalAlign=middle;whiteSpace=wrap;rounded=0;" vertex="1" parent="wkMadTR8w1mrKC2IVPZv-108">
          <mxGeometry x="158.5" y="4" width="115" height="30" as="geometry" />
        </mxCell>
        <mxCell id="wkMadTR8w1mrKC2IVPZv-92" value="&lt;font style=&quot;font-size: 14px;&quot;&gt;192.168.24.6&lt;/font&gt;" style="text;html=1;align=center;verticalAlign=middle;whiteSpace=wrap;rounded=0;" vertex="1" parent="wkMadTR8w1mrKC2IVPZv-108">
          <mxGeometry x="293" y="4" width="115" height="30" as="geometry" />
        </mxCell>
        <mxCell id="wkMadTR8w1mrKC2IVPZv-115" value="&lt;font style=&quot;font-size: 14px;&quot;&gt;172.16.129.20&lt;/font&gt;" style="text;html=1;align=center;verticalAlign=middle;whiteSpace=wrap;rounded=0;" vertex="1" parent="1">
          <mxGeometry x="719.5" y="414" width="115" height="30" as="geometry" />
        </mxCell>
        <mxCell id="wkMadTR8w1mrKC2IVPZv-121" style="edgeStyle=orthogonalEdgeStyle;rounded=0;orthogonalLoop=1;jettySize=auto;html=1;exitX=0.5;exitY=1;exitDx=0;exitDy=0;entryX=0.202;entryY=0.004;entryDx=0;entryDy=0;entryPerimeter=0;" edge="1" parent="1" source="wkMadTR8w1mrKC2IVPZv-101" target="wkMadTR8w1mrKC2IVPZv-103">
          <mxGeometry relative="1" as="geometry">
            <Array as="points">
              <mxPoint x="770" y="1033" />
              <mxPoint x="866" y="1033" />
            </Array>
          </mxGeometry>
        </mxCell>
        <mxCell id="wkMadTR8w1mrKC2IVPZv-123" style="edgeStyle=orthogonalEdgeStyle;rounded=0;orthogonalLoop=1;jettySize=auto;html=1;exitX=0.5;exitY=1;exitDx=0;exitDy=0;entryX=0.783;entryY=0.013;entryDx=0;entryDy=0;entryPerimeter=0;" edge="1" parent="1" source="wkMadTR8w1mrKC2IVPZv-101" target="wkMadTR8w1mrKC2IVPZv-103">
          <mxGeometry relative="1" as="geometry">
            <Array as="points">
              <mxPoint x="770" y="1033" />
              <mxPoint x="1073" y="1033" />
            </Array>
          </mxGeometry>
        </mxCell>
        <mxCell id="wkMadTR8w1mrKC2IVPZv-219" value="" style="group" vertex="1" connectable="0" parent="1">
          <mxGeometry x="358" y="1698" width="1144.5" height="246" as="geometry" />
        </mxCell>
        <mxCell id="wkMadTR8w1mrKC2IVPZv-275" value="" style="group" vertex="1" connectable="0" parent="wkMadTR8w1mrKC2IVPZv-219">
          <mxGeometry y="-1" width="978.5" height="247" as="geometry" />
        </mxCell>
        <mxCell id="wkMadTR8w1mrKC2IVPZv-274" value="" style="rounded=1;whiteSpace=wrap;html=1;fillColor=#b0e3e6;strokeColor=#0e8088;" vertex="1" parent="wkMadTR8w1mrKC2IVPZv-275">
          <mxGeometry x="-36" y="-45" width="956" height="281" as="geometry" />
        </mxCell>
        <mxCell id="wkMadTR8w1mrKC2IVPZv-169" value="" style="whiteSpace=wrap;html=1;aspect=fixed;fillColor=#ffe6cc;strokeColor=#d79b00;container=0;" vertex="1" parent="wkMadTR8w1mrKC2IVPZv-275">
          <mxGeometry y="1" width="209" height="209" as="geometry" />
        </mxCell>
        <mxCell id="wkMadTR8w1mrKC2IVPZv-134" value="" style="ellipse;whiteSpace=wrap;html=1;aspect=fixed;fillColor=#fff2cc;strokeColor=#d6b656;container=0;" vertex="1" parent="wkMadTR8w1mrKC2IVPZv-275">
          <mxGeometry x="24.5" y="37" width="160" height="160" as="geometry" />
        </mxCell>
        <mxCell id="wkMadTR8w1mrKC2IVPZv-135" value="&lt;font style=&quot;font-size: 14px;&quot;&gt;Tomcat&lt;/font&gt;" style="text;html=1;align=center;verticalAlign=middle;whiteSpace=wrap;rounded=0;container=0;" vertex="1" parent="wkMadTR8w1mrKC2IVPZv-275">
          <mxGeometry x="74.5" y="51" width="60" height="30" as="geometry" />
        </mxCell>
        <mxCell id="wkMadTR8w1mrKC2IVPZv-136" value="Order" style="rounded=1;whiteSpace=wrap;html=1;fillColor=#f8cecc;strokeColor=#b85450;container=0;" vertex="1" parent="wkMadTR8w1mrKC2IVPZv-275">
          <mxGeometry x="47" y="88" width="51" height="27" as="geometry" />
        </mxCell>
        <mxCell id="wkMadTR8w1mrKC2IVPZv-137" value="Goods" style="rounded=1;whiteSpace=wrap;html=1;fillColor=#f8cecc;strokeColor=#b85450;container=0;" vertex="1" parent="wkMadTR8w1mrKC2IVPZv-275">
          <mxGeometry x="110" y="88" width="51" height="27" as="geometry" />
        </mxCell>
        <mxCell id="wkMadTR8w1mrKC2IVPZv-138" value="Order" style="rounded=1;whiteSpace=wrap;html=1;fillColor=#f8cecc;strokeColor=#b85450;container=0;" vertex="1" parent="wkMadTR8w1mrKC2IVPZv-275">
          <mxGeometry x="110" y="134" width="51" height="27" as="geometry" />
        </mxCell>
        <mxCell id="wkMadTR8w1mrKC2IVPZv-139" value="Pay" style="rounded=1;whiteSpace=wrap;html=1;fillColor=#f8cecc;strokeColor=#b85450;container=0;" vertex="1" parent="wkMadTR8w1mrKC2IVPZv-275">
          <mxGeometry x="47" y="134" width="51" height="27" as="geometry" />
        </mxCell>
        <mxCell id="wkMadTR8w1mrKC2IVPZv-205" value="&lt;font style=&quot;font-size: 24px;&quot;&gt;Server&lt;/font&gt;" style="text;html=1;align=center;verticalAlign=middle;whiteSpace=wrap;rounded=0;container=0;" vertex="1" parent="wkMadTR8w1mrKC2IVPZv-275">
          <mxGeometry x="54" y="2" width="100" height="30" as="geometry" />
        </mxCell>
        <mxCell id="wkMadTR8w1mrKC2IVPZv-186" value="" style="whiteSpace=wrap;html=1;aspect=fixed;fillColor=#ffe6cc;strokeColor=#d79b00;container=0;" vertex="1" parent="wkMadTR8w1mrKC2IVPZv-275">
          <mxGeometry x="228" y="1" width="209" height="209" as="geometry" />
        </mxCell>
        <mxCell id="wkMadTR8w1mrKC2IVPZv-141" value="" style="ellipse;whiteSpace=wrap;html=1;aspect=fixed;fillColor=#fff2cc;strokeColor=#d6b656;container=0;" vertex="1" parent="wkMadTR8w1mrKC2IVPZv-275">
          <mxGeometry x="252.5" y="37" width="160" height="160" as="geometry" />
        </mxCell>
        <mxCell id="wkMadTR8w1mrKC2IVPZv-142" value="&lt;font style=&quot;font-size: 14px;&quot;&gt;Tomcat&lt;/font&gt;" style="text;html=1;align=center;verticalAlign=middle;whiteSpace=wrap;rounded=0;container=0;" vertex="1" parent="wkMadTR8w1mrKC2IVPZv-275">
          <mxGeometry x="302.5" y="51" width="60" height="30" as="geometry" />
        </mxCell>
        <mxCell id="wkMadTR8w1mrKC2IVPZv-143" value="User" style="rounded=1;whiteSpace=wrap;html=1;fillColor=#f8cecc;strokeColor=#b85450;container=0;" vertex="1" parent="wkMadTR8w1mrKC2IVPZv-275">
          <mxGeometry x="275" y="88" width="51" height="27" as="geometry" />
        </mxCell>
        <mxCell id="wkMadTR8w1mrKC2IVPZv-144" value="User" style="rounded=1;whiteSpace=wrap;html=1;fillColor=#f8cecc;strokeColor=#b85450;container=0;" vertex="1" parent="wkMadTR8w1mrKC2IVPZv-275">
          <mxGeometry x="338" y="88" width="51" height="27" as="geometry" />
        </mxCell>
        <mxCell id="wkMadTR8w1mrKC2IVPZv-145" value="Goods" style="rounded=1;whiteSpace=wrap;html=1;fillColor=#f8cecc;strokeColor=#b85450;container=0;" vertex="1" parent="wkMadTR8w1mrKC2IVPZv-275">
          <mxGeometry x="338" y="134" width="51" height="27" as="geometry" />
        </mxCell>
        <mxCell id="wkMadTR8w1mrKC2IVPZv-146" value="Order" style="rounded=1;whiteSpace=wrap;html=1;fillColor=#f8cecc;strokeColor=#b85450;container=0;" vertex="1" parent="wkMadTR8w1mrKC2IVPZv-275">
          <mxGeometry x="275" y="134" width="51" height="27" as="geometry" />
        </mxCell>
        <mxCell id="wkMadTR8w1mrKC2IVPZv-206" value="&lt;font style=&quot;font-size: 24px;&quot;&gt;Server&lt;/font&gt;" style="text;html=1;align=center;verticalAlign=middle;whiteSpace=wrap;rounded=0;container=0;" vertex="1" parent="wkMadTR8w1mrKC2IVPZv-275">
          <mxGeometry x="282.5" y="1" width="100" height="30" as="geometry" />
        </mxCell>
        <mxCell id="wkMadTR8w1mrKC2IVPZv-189" value="" style="whiteSpace=wrap;html=1;aspect=fixed;fillColor=#ffe6cc;strokeColor=#d79b00;container=0;" vertex="1" parent="wkMadTR8w1mrKC2IVPZv-275">
          <mxGeometry x="448" width="209" height="209" as="geometry" />
        </mxCell>
        <mxCell id="wkMadTR8w1mrKC2IVPZv-153" value="" style="ellipse;whiteSpace=wrap;html=1;aspect=fixed;fillColor=#fff2cc;strokeColor=#d6b656;container=0;" vertex="1" parent="wkMadTR8w1mrKC2IVPZv-275">
          <mxGeometry x="472.5" y="35" width="160" height="160" as="geometry" />
        </mxCell>
        <mxCell id="wkMadTR8w1mrKC2IVPZv-154" value="&lt;font style=&quot;font-size: 14px;&quot;&gt;Tomcat&lt;/font&gt;" style="text;html=1;align=center;verticalAlign=middle;whiteSpace=wrap;rounded=0;container=0;" vertex="1" parent="wkMadTR8w1mrKC2IVPZv-275">
          <mxGeometry x="522.5" y="49" width="60" height="30" as="geometry" />
        </mxCell>
        <mxCell id="wkMadTR8w1mrKC2IVPZv-155" value="Order" style="rounded=1;whiteSpace=wrap;html=1;fillColor=#f8cecc;strokeColor=#b85450;container=0;" vertex="1" parent="wkMadTR8w1mrKC2IVPZv-275">
          <mxGeometry x="495" y="86" width="51" height="27" as="geometry" />
        </mxCell>
        <mxCell id="wkMadTR8w1mrKC2IVPZv-156" value="Order" style="rounded=1;whiteSpace=wrap;html=1;fillColor=#f8cecc;strokeColor=#b85450;container=0;" vertex="1" parent="wkMadTR8w1mrKC2IVPZv-275">
          <mxGeometry x="558" y="86" width="51" height="27" as="geometry" />
        </mxCell>
        <mxCell id="wkMadTR8w1mrKC2IVPZv-157" value="User" style="rounded=1;whiteSpace=wrap;html=1;fillColor=#f8cecc;strokeColor=#b85450;container=0;" vertex="1" parent="wkMadTR8w1mrKC2IVPZv-275">
          <mxGeometry x="558" y="132" width="51" height="27" as="geometry" />
        </mxCell>
        <mxCell id="wkMadTR8w1mrKC2IVPZv-158" value="Pay" style="rounded=1;whiteSpace=wrap;html=1;fillColor=#f8cecc;strokeColor=#b85450;container=0;" vertex="1" parent="wkMadTR8w1mrKC2IVPZv-275">
          <mxGeometry x="495" y="132" width="51" height="27" as="geometry" />
        </mxCell>
        <mxCell id="wkMadTR8w1mrKC2IVPZv-207" value="&lt;font style=&quot;font-size: 24px;&quot;&gt;Server&lt;/font&gt;" style="text;html=1;align=center;verticalAlign=middle;whiteSpace=wrap;rounded=0;container=0;" vertex="1" parent="wkMadTR8w1mrKC2IVPZv-275">
          <mxGeometry x="502.5" y="2" width="100" height="30" as="geometry" />
        </mxCell>
        <mxCell id="wkMadTR8w1mrKC2IVPZv-190" value="" style="whiteSpace=wrap;html=1;aspect=fixed;fillColor=#ffe6cc;strokeColor=#d79b00;container=0;" vertex="1" parent="wkMadTR8w1mrKC2IVPZv-275">
          <mxGeometry x="668.5" width="209" height="209" as="geometry" />
        </mxCell>
        <mxCell id="wkMadTR8w1mrKC2IVPZv-160" value="" style="ellipse;whiteSpace=wrap;html=1;aspect=fixed;fillColor=#fff2cc;strokeColor=#d6b656;container=0;" vertex="1" parent="wkMadTR8w1mrKC2IVPZv-275">
          <mxGeometry x="688.5" y="32" width="160" height="160" as="geometry" />
        </mxCell>
        <mxCell id="wkMadTR8w1mrKC2IVPZv-161" value="&lt;font style=&quot;font-size: 14px;&quot;&gt;Tomcat&lt;/font&gt;" style="text;html=1;align=center;verticalAlign=middle;whiteSpace=wrap;rounded=0;container=0;" vertex="1" parent="wkMadTR8w1mrKC2IVPZv-275">
          <mxGeometry x="738.5" y="46" width="60" height="30" as="geometry" />
        </mxCell>
        <mxCell id="wkMadTR8w1mrKC2IVPZv-162" value="Pay" style="rounded=1;whiteSpace=wrap;html=1;fillColor=#f8cecc;strokeColor=#b85450;container=0;" vertex="1" parent="wkMadTR8w1mrKC2IVPZv-275">
          <mxGeometry x="711" y="83" width="51" height="27" as="geometry" />
        </mxCell>
        <mxCell id="wkMadTR8w1mrKC2IVPZv-163" value="Order" style="rounded=1;whiteSpace=wrap;html=1;fillColor=#f8cecc;strokeColor=#b85450;container=0;" vertex="1" parent="wkMadTR8w1mrKC2IVPZv-275">
          <mxGeometry x="774" y="83" width="51" height="27" as="geometry" />
        </mxCell>
        <mxCell id="wkMadTR8w1mrKC2IVPZv-164" value="Pay" style="rounded=1;whiteSpace=wrap;html=1;fillColor=#f8cecc;strokeColor=#b85450;container=0;" vertex="1" parent="wkMadTR8w1mrKC2IVPZv-275">
          <mxGeometry x="774" y="129" width="51" height="27" as="geometry" />
        </mxCell>
        <mxCell id="wkMadTR8w1mrKC2IVPZv-165" value="Goods" style="rounded=1;whiteSpace=wrap;html=1;fillColor=#f8cecc;strokeColor=#b85450;container=0;" vertex="1" parent="wkMadTR8w1mrKC2IVPZv-275">
          <mxGeometry x="711" y="129" width="51" height="27" as="geometry" />
        </mxCell>
        <mxCell id="wkMadTR8w1mrKC2IVPZv-208" value="&lt;font style=&quot;font-size: 24px;&quot;&gt;Server&lt;/font&gt;" style="text;html=1;align=center;verticalAlign=middle;whiteSpace=wrap;rounded=0;container=0;" vertex="1" parent="wkMadTR8w1mrKC2IVPZv-275">
          <mxGeometry x="723" width="100" height="30" as="geometry" />
        </mxCell>
        <mxCell id="wkMadTR8w1mrKC2IVPZv-276" style="edgeStyle=orthogonalEdgeStyle;rounded=0;orthogonalLoop=1;jettySize=auto;html=1;exitX=0.5;exitY=1;exitDx=0;exitDy=0;entryX=0.5;entryY=1;entryDx=0;entryDy=0;" edge="1" parent="wkMadTR8w1mrKC2IVPZv-275" source="wkMadTR8w1mrKC2IVPZv-138" target="wkMadTR8w1mrKC2IVPZv-158">
          <mxGeometry relative="1" as="geometry" />
        </mxCell>
        <mxCell id="wkMadTR8w1mrKC2IVPZv-277" value="&lt;font style=&quot;font-size: 24px;&quot;&gt;RPC&lt;/font&gt;" style="rounded=0;whiteSpace=wrap;html=1;fillColor=#ffcd28;strokeColor=#d79b00;gradientColor=#ffa500;" vertex="1" parent="wkMadTR8w1mrKC2IVPZv-275">
          <mxGeometry x="170" y="189" width="90" height="35" as="geometry" />
        </mxCell>
        <mxCell id="wkMadTR8w1mrKC2IVPZv-295" style="edgeStyle=orthogonalEdgeStyle;rounded=0;orthogonalLoop=1;jettySize=auto;html=1;exitX=0.5;exitY=0;exitDx=0;exitDy=0;entryX=0.5;entryY=0;entryDx=0;entryDy=0;" edge="1" parent="wkMadTR8w1mrKC2IVPZv-275" source="wkMadTR8w1mrKC2IVPZv-144" target="wkMadTR8w1mrKC2IVPZv-163">
          <mxGeometry relative="1" as="geometry">
            <Array as="points">
              <mxPoint x="364" y="42" />
              <mxPoint x="800" y="42" />
            </Array>
          </mxGeometry>
        </mxCell>
        <mxCell id="wkMadTR8w1mrKC2IVPZv-296" value="&lt;font style=&quot;font-size: 24px;&quot;&gt;RPC&lt;/font&gt;" style="rounded=0;whiteSpace=wrap;html=1;fillColor=#ffcd28;strokeColor=#d79b00;gradientColor=#ffa500;" vertex="1" parent="wkMadTR8w1mrKC2IVPZv-275">
          <mxGeometry x="618" y="5" width="90" height="35" as="geometry" />
        </mxCell>
        <mxCell id="wkMadTR8w1mrKC2IVPZv-220" value="" style="group" vertex="1" connectable="0" parent="1">
          <mxGeometry x="1035" y="2074" width="343.5" height="135.5" as="geometry" />
        </mxCell>
        <mxCell id="wkMadTR8w1mrKC2IVPZv-221" value="" style="rounded=1;whiteSpace=wrap;html=1;fillColor=#b0e3e6;strokeColor=#0e8088;" vertex="1" parent="wkMadTR8w1mrKC2IVPZv-220">
          <mxGeometry x="-12.5" y="-8" width="356" height="143.5" as="geometry" />
        </mxCell>
        <mxCell id="wkMadTR8w1mrKC2IVPZv-222" value="" style="whiteSpace=wrap;html=1;aspect=fixed;fillColor=#ffe6cc;strokeColor=#d79b00;" vertex="1" parent="wkMadTR8w1mrKC2IVPZv-220">
          <mxGeometry x="9.5" y="30" width="96" height="96" as="geometry" />
        </mxCell>
        <mxCell id="wkMadTR8w1mrKC2IVPZv-223" value="&lt;font style=&quot;font-size: 14px;&quot;&gt;Redis&lt;/font&gt;" style="shape=hexagon;perimeter=hexagonPerimeter2;whiteSpace=wrap;html=1;fixedSize=1;fillColor=#d5e8d4;strokeColor=#82b366;" vertex="1" parent="wkMadTR8w1mrKC2IVPZv-220">
          <mxGeometry x="19.5" y="73" width="76" height="50" as="geometry" />
        </mxCell>
        <mxCell id="wkMadTR8w1mrKC2IVPZv-224" value="" style="whiteSpace=wrap;html=1;aspect=fixed;fillColor=#ffe6cc;strokeColor=#d79b00;" vertex="1" parent="wkMadTR8w1mrKC2IVPZv-220">
          <mxGeometry x="117.5" y="30" width="96" height="96" as="geometry" />
        </mxCell>
        <mxCell id="wkMadTR8w1mrKC2IVPZv-225" value="&lt;font style=&quot;font-size: 14px;&quot;&gt;Redis&lt;/font&gt;" style="shape=hexagon;perimeter=hexagonPerimeter2;whiteSpace=wrap;html=1;fixedSize=1;fillColor=#d5e8d4;strokeColor=#82b366;" vertex="1" parent="wkMadTR8w1mrKC2IVPZv-220">
          <mxGeometry x="127.5" y="73" width="76" height="50" as="geometry" />
        </mxCell>
        <mxCell id="wkMadTR8w1mrKC2IVPZv-226" value="" style="whiteSpace=wrap;html=1;aspect=fixed;fillColor=#ffe6cc;strokeColor=#d79b00;" vertex="1" parent="wkMadTR8w1mrKC2IVPZv-220">
          <mxGeometry x="222.5" y="30" width="96" height="96" as="geometry" />
        </mxCell>
        <mxCell id="wkMadTR8w1mrKC2IVPZv-227" value="&lt;font style=&quot;font-size: 14px;&quot;&gt;Redis&lt;/font&gt;" style="shape=hexagon;perimeter=hexagonPerimeter2;whiteSpace=wrap;html=1;fixedSize=1;fillColor=#d5e8d4;strokeColor=#82b366;" vertex="1" parent="wkMadTR8w1mrKC2IVPZv-220">
          <mxGeometry x="232.5" y="73" width="76" height="50" as="geometry" />
        </mxCell>
        <mxCell id="wkMadTR8w1mrKC2IVPZv-228" value="&lt;font style=&quot;font-size: 14px;&quot;&gt;192.168.24.21&lt;/font&gt;" style="text;html=1;align=center;verticalAlign=middle;whiteSpace=wrap;rounded=0;" vertex="1" parent="wkMadTR8w1mrKC2IVPZv-220">
          <mxGeometry width="115" height="30" as="geometry" />
        </mxCell>
        <mxCell id="wkMadTR8w1mrKC2IVPZv-229" value="&lt;font style=&quot;font-size: 14px;&quot;&gt;192.168.24.22&lt;/font&gt;" style="text;html=1;align=center;verticalAlign=middle;whiteSpace=wrap;rounded=0;" vertex="1" parent="wkMadTR8w1mrKC2IVPZv-220">
          <mxGeometry x="108" width="115" height="30" as="geometry" />
        </mxCell>
        <mxCell id="wkMadTR8w1mrKC2IVPZv-230" value="&lt;font style=&quot;font-size: 14px;&quot;&gt;192.168.24.23&lt;/font&gt;" style="text;html=1;align=center;verticalAlign=middle;whiteSpace=wrap;rounded=0;" vertex="1" parent="wkMadTR8w1mrKC2IVPZv-220">
          <mxGeometry x="213" width="115" height="30" as="geometry" />
        </mxCell>
        <mxCell id="wkMadTR8w1mrKC2IVPZv-231" value="&lt;font style=&quot;font-size: 24px;&quot;&gt;Server&lt;/font&gt;" style="text;html=1;align=center;verticalAlign=middle;whiteSpace=wrap;rounded=0;" vertex="1" parent="wkMadTR8w1mrKC2IVPZv-220">
          <mxGeometry x="7.5" y="34" width="100" height="30" as="geometry" />
        </mxCell>
        <mxCell id="wkMadTR8w1mrKC2IVPZv-232" value="&lt;font style=&quot;font-size: 24px;&quot;&gt;Server&lt;/font&gt;" style="text;html=1;align=center;verticalAlign=middle;whiteSpace=wrap;rounded=0;" vertex="1" parent="wkMadTR8w1mrKC2IVPZv-220">
          <mxGeometry x="113.5" y="34" width="100" height="30" as="geometry" />
        </mxCell>
        <mxCell id="wkMadTR8w1mrKC2IVPZv-233" value="&lt;font style=&quot;font-size: 24px;&quot;&gt;Server&lt;/font&gt;" style="text;html=1;align=center;verticalAlign=middle;whiteSpace=wrap;rounded=0;" vertex="1" parent="wkMadTR8w1mrKC2IVPZv-220">
          <mxGeometry x="218.5" y="34" width="100" height="30" as="geometry" />
        </mxCell>
        <mxCell id="wkMadTR8w1mrKC2IVPZv-249" value="&lt;font style=&quot;font-size: 14px;&quot;&gt;192.168.24.1&lt;/font&gt;" style="text;html=1;align=center;verticalAlign=middle;whiteSpace=wrap;rounded=0;container=0;" vertex="1" parent="1">
          <mxGeometry x="403.5" y="1665" width="115" height="30" as="geometry" />
        </mxCell>
        <mxCell id="wkMadTR8w1mrKC2IVPZv-250" value="&lt;font style=&quot;font-size: 14px;&quot;&gt;192.168.24.2&lt;/font&gt;" style="text;html=1;align=center;verticalAlign=middle;whiteSpace=wrap;rounded=0;container=0;" vertex="1" parent="1">
          <mxGeometry x="633" y="1665" width="115" height="30" as="geometry" />
        </mxCell>
        <mxCell id="wkMadTR8w1mrKC2IVPZv-251" value="&lt;font style=&quot;font-size: 14px;&quot;&gt;192.168.24.3&lt;/font&gt;" style="text;html=1;align=center;verticalAlign=middle;whiteSpace=wrap;rounded=0;container=0;" vertex="1" parent="1">
          <mxGeometry x="845" y="1665" width="115" height="30" as="geometry" />
        </mxCell>
        <mxCell id="wkMadTR8w1mrKC2IVPZv-252" value="&lt;font style=&quot;font-size: 14px;&quot;&gt;192.168.24.4&lt;/font&gt;" style="text;html=1;align=center;verticalAlign=middle;whiteSpace=wrap;rounded=0;container=0;" vertex="1" parent="1">
          <mxGeometry x="1068" y="1665" width="115" height="30" as="geometry" />
        </mxCell>
        <mxCell id="wkMadTR8w1mrKC2IVPZv-259" value="" style="group" vertex="1" connectable="0" parent="1">
          <mxGeometry x="235" y="2045" width="707" height="244" as="geometry" />
        </mxCell>
        <mxCell id="wkMadTR8w1mrKC2IVPZv-218" value="" style="group" vertex="1" connectable="0" parent="wkMadTR8w1mrKC2IVPZv-259">
          <mxGeometry y="36" width="707" height="208" as="geometry" />
        </mxCell>
        <mxCell id="wkMadTR8w1mrKC2IVPZv-257" value="" style="rounded=1;whiteSpace=wrap;html=1;fillColor=#b0e3e6;strokeColor=#0e8088;" vertex="1" parent="wkMadTR8w1mrKC2IVPZv-218">
          <mxGeometry x="-24" y="-61" width="731" height="269" as="geometry" />
        </mxCell>
        <mxCell id="wkMadTR8w1mrKC2IVPZv-167" value="" style="whiteSpace=wrap;html=1;aspect=fixed;fillColor=#ffe6cc;strokeColor=#d79b00;" vertex="1" parent="wkMadTR8w1mrKC2IVPZv-218">
          <mxGeometry width="160" height="160" as="geometry" />
        </mxCell>
        <mxCell id="wkMadTR8w1mrKC2IVPZv-168" value="&lt;font style=&quot;font-size: 24px;&quot;&gt;Server&lt;/font&gt;" style="text;html=1;align=center;verticalAlign=middle;whiteSpace=wrap;rounded=0;" vertex="1" parent="wkMadTR8w1mrKC2IVPZv-218">
          <mxGeometry x="30" y="6" width="100" height="30" as="geometry" />
        </mxCell>
        <mxCell id="wkMadTR8w1mrKC2IVPZv-166" value="&lt;font style=&quot;font-size: 14px;&quot;&gt;User Database&lt;/font&gt;" style="shape=cylinder3;whiteSpace=wrap;html=1;boundedLbl=1;backgroundOutline=1;size=15;fillColor=#dae8fc;strokeColor=#6c8ebf;" vertex="1" parent="wkMadTR8w1mrKC2IVPZv-218">
          <mxGeometry x="22.25" y="61" width="115.5" height="95" as="geometry" />
        </mxCell>
        <mxCell id="wkMadTR8w1mrKC2IVPZv-209" value="" style="whiteSpace=wrap;html=1;aspect=fixed;fillColor=#ffe6cc;strokeColor=#d79b00;" vertex="1" parent="wkMadTR8w1mrKC2IVPZv-218">
          <mxGeometry x="177" width="160" height="160" as="geometry" />
        </mxCell>
        <mxCell id="wkMadTR8w1mrKC2IVPZv-210" value="&lt;font style=&quot;font-size: 24px;&quot;&gt;Server&lt;/font&gt;" style="text;html=1;align=center;verticalAlign=middle;whiteSpace=wrap;rounded=0;" vertex="1" parent="wkMadTR8w1mrKC2IVPZv-218">
          <mxGeometry x="207" y="6" width="100" height="30" as="geometry" />
        </mxCell>
        <mxCell id="wkMadTR8w1mrKC2IVPZv-211" value="&lt;font style=&quot;font-size: 14px;&quot;&gt;Order Database&lt;/font&gt;" style="shape=cylinder3;whiteSpace=wrap;html=1;boundedLbl=1;backgroundOutline=1;size=15;fillColor=#dae8fc;strokeColor=#6c8ebf;" vertex="1" parent="wkMadTR8w1mrKC2IVPZv-218">
          <mxGeometry x="199.25" y="61" width="115.5" height="95" as="geometry" />
        </mxCell>
        <mxCell id="wkMadTR8w1mrKC2IVPZv-212" value="" style="whiteSpace=wrap;html=1;aspect=fixed;fillColor=#ffe6cc;strokeColor=#d79b00;" vertex="1" parent="wkMadTR8w1mrKC2IVPZv-218">
          <mxGeometry x="347.5" width="160" height="160" as="geometry" />
        </mxCell>
        <mxCell id="wkMadTR8w1mrKC2IVPZv-213" value="&lt;font style=&quot;font-size: 24px;&quot;&gt;Server&lt;/font&gt;" style="text;html=1;align=center;verticalAlign=middle;whiteSpace=wrap;rounded=0;" vertex="1" parent="wkMadTR8w1mrKC2IVPZv-218">
          <mxGeometry x="377.5" y="6" width="100" height="30" as="geometry" />
        </mxCell>
        <mxCell id="wkMadTR8w1mrKC2IVPZv-214" value="&lt;font style=&quot;font-size: 14px;&quot;&gt;Pay Database&lt;/font&gt;" style="shape=cylinder3;whiteSpace=wrap;html=1;boundedLbl=1;backgroundOutline=1;size=15;fillColor=#dae8fc;strokeColor=#6c8ebf;" vertex="1" parent="wkMadTR8w1mrKC2IVPZv-218">
          <mxGeometry x="369.75" y="61" width="115.5" height="95" as="geometry" />
        </mxCell>
        <mxCell id="wkMadTR8w1mrKC2IVPZv-215" value="" style="whiteSpace=wrap;html=1;aspect=fixed;fillColor=#ffe6cc;strokeColor=#d79b00;" vertex="1" parent="wkMadTR8w1mrKC2IVPZv-218">
          <mxGeometry x="516.5" width="160" height="160" as="geometry" />
        </mxCell>
        <mxCell id="wkMadTR8w1mrKC2IVPZv-216" value="&lt;font style=&quot;font-size: 24px;&quot;&gt;Server&lt;/font&gt;" style="text;html=1;align=center;verticalAlign=middle;whiteSpace=wrap;rounded=0;" vertex="1" parent="wkMadTR8w1mrKC2IVPZv-218">
          <mxGeometry x="546.5" y="6" width="100" height="30" as="geometry" />
        </mxCell>
        <mxCell id="wkMadTR8w1mrKC2IVPZv-217" value="&lt;font style=&quot;font-size: 14px;&quot;&gt;Goods Database&lt;/font&gt;" style="shape=cylinder3;whiteSpace=wrap;html=1;boundedLbl=1;backgroundOutline=1;size=15;fillColor=#dae8fc;strokeColor=#6c8ebf;" vertex="1" parent="wkMadTR8w1mrKC2IVPZv-218">
          <mxGeometry x="538.75" y="61" width="115.5" height="95" as="geometry" />
        </mxCell>
        <mxCell id="wkMadTR8w1mrKC2IVPZv-253" value="&lt;font style=&quot;font-size: 14px;&quot;&gt;192.168.24.11&lt;/font&gt;" style="text;html=1;align=center;verticalAlign=middle;whiteSpace=wrap;rounded=0;" vertex="1" parent="wkMadTR8w1mrKC2IVPZv-259">
          <mxGeometry x="23" width="115" height="30" as="geometry" />
        </mxCell>
        <mxCell id="wkMadTR8w1mrKC2IVPZv-254" value="&lt;font style=&quot;font-size: 14px;&quot;&gt;192.168.24.21&lt;/font&gt;" style="text;html=1;align=center;verticalAlign=middle;whiteSpace=wrap;rounded=0;" vertex="1" parent="wkMadTR8w1mrKC2IVPZv-259">
          <mxGeometry x="200" width="115" height="30" as="geometry" />
        </mxCell>
        <mxCell id="wkMadTR8w1mrKC2IVPZv-255" value="&lt;font style=&quot;font-size: 14px;&quot;&gt;192.168.24.31&lt;/font&gt;" style="text;html=1;align=center;verticalAlign=middle;whiteSpace=wrap;rounded=0;" vertex="1" parent="wkMadTR8w1mrKC2IVPZv-259">
          <mxGeometry x="370" width="115" height="30" as="geometry" />
        </mxCell>
        <mxCell id="wkMadTR8w1mrKC2IVPZv-256" value="&lt;font style=&quot;font-size: 14px;&quot;&gt;192.168.24.41&lt;/font&gt;" style="text;html=1;align=center;verticalAlign=middle;whiteSpace=wrap;rounded=0;" vertex="1" parent="wkMadTR8w1mrKC2IVPZv-259">
          <mxGeometry x="540" width="115" height="30" as="geometry" />
        </mxCell>
        <mxCell id="wkMadTR8w1mrKC2IVPZv-297" style="edgeStyle=orthogonalEdgeStyle;rounded=0;orthogonalLoop=1;jettySize=auto;html=1;exitX=0.5;exitY=1;exitDx=0;exitDy=0;entryX=0.5;entryY=0;entryDx=0;entryDy=0;" edge="1" parent="1" source="wkMadTR8w1mrKC2IVPZv-278" target="wkMadTR8w1mrKC2IVPZv-274">
          <mxGeometry relative="1" as="geometry" />
        </mxCell>
        <mxCell id="wkMadTR8w1mrKC2IVPZv-278" value="" style="rounded=1;whiteSpace=wrap;html=1;fillColor=#b0e3e6;strokeColor=#0e8088;" vertex="1" parent="1">
          <mxGeometry x="549.25" y="1422" width="501.5" height="168" as="geometry" />
        </mxCell>
        <mxCell id="wkMadTR8w1mrKC2IVPZv-279" style="edgeStyle=orthogonalEdgeStyle;rounded=0;orthogonalLoop=1;jettySize=auto;html=1;exitX=0.5;exitY=1;exitDx=0;exitDy=0;entryX=0.5;entryY=0;entryDx=0;entryDy=0;" edge="1" parent="1" source="wkMadTR8w1mrKC2IVPZv-274" target="wkMadTR8w1mrKC2IVPZv-257">
          <mxGeometry relative="1" as="geometry" />
        </mxCell>
        <mxCell id="wkMadTR8w1mrKC2IVPZv-280" style="edgeStyle=orthogonalEdgeStyle;rounded=0;orthogonalLoop=1;jettySize=auto;html=1;exitX=0.5;exitY=1;exitDx=0;exitDy=0;entryX=0.5;entryY=0;entryDx=0;entryDy=0;" edge="1" parent="1" source="wkMadTR8w1mrKC2IVPZv-274" target="wkMadTR8w1mrKC2IVPZv-221">
          <mxGeometry relative="1" as="geometry" />
        </mxCell>
        <mxCell id="wkMadTR8w1mrKC2IVPZv-281" value="&lt;font style=&quot;font-size: 24px;&quot;&gt;网关中心&lt;/font&gt;" style="rounded=0;whiteSpace=wrap;html=1;fillColor=#d5e8d4;strokeColor=#82b366;gradientColor=#97d077;" vertex="1" parent="1">
          <mxGeometry x="585.5" y="1436" width="120" height="60" as="geometry" />
        </mxCell>
        <mxCell id="wkMadTR8w1mrKC2IVPZv-283" value="&lt;font style=&quot;font-size: 24px;&quot;&gt;权限中心&lt;/font&gt;" style="rounded=0;whiteSpace=wrap;html=1;fillColor=#e6d0de;strokeColor=#996185;gradientColor=#d5739d;" vertex="1" parent="1">
          <mxGeometry x="738.5" y="1436" width="120" height="60" as="geometry" />
        </mxCell>
        <mxCell id="wkMadTR8w1mrKC2IVPZv-284" value="&lt;font style=&quot;font-size: 24px;&quot;&gt;注册中心&lt;/font&gt;" style="rounded=0;whiteSpace=wrap;html=1;fillColor=#fff2cc;strokeColor=#d6b656;gradientColor=#ffd966;" vertex="1" parent="1">
          <mxGeometry x="586.5" y="1516" width="120" height="60" as="geometry" />
        </mxCell>
        <mxCell id="wkMadTR8w1mrKC2IVPZv-285" value="&lt;font style=&quot;font-size: 24px;&quot;&gt;配置中心&lt;/font&gt;" style="rounded=0;whiteSpace=wrap;html=1;fillColor=#f8cecc;strokeColor=#b85450;gradientColor=#ea6b66;" vertex="1" parent="1">
          <mxGeometry x="740" y="1516" width="120" height="60" as="geometry" />
        </mxCell>
        <mxCell id="wkMadTR8w1mrKC2IVPZv-286" value="&lt;font style=&quot;font-size: 24px;&quot;&gt;监控中心&lt;/font&gt;" style="rounded=0;whiteSpace=wrap;html=1;fillColor=#dae8fc;strokeColor=#6c8ebf;gradientColor=#7ea6e0;" vertex="1" parent="1">
          <mxGeometry x="885" y="1436" width="120" height="60" as="geometry" />
        </mxCell>
        <mxCell id="wkMadTR8w1mrKC2IVPZv-287" value="&lt;font style=&quot;font-size: 24px;&quot;&gt;消息中心&lt;/font&gt;" style="rounded=0;whiteSpace=wrap;html=1;fillColor=#f5f5f5;strokeColor=#666666;gradientColor=#b3b3b3;" vertex="1" parent="1">
          <mxGeometry x="885" y="1516" width="120" height="60" as="geometry" />
        </mxCell>
        <mxCell id="wkMadTR8w1mrKC2IVPZv-288" style="edgeStyle=orthogonalEdgeStyle;rounded=0;orthogonalLoop=1;jettySize=auto;html=1;entryX=0;entryY=0.5;entryDx=0;entryDy=0;" edge="1" parent="1" source="wkMadTR8w1mrKC2IVPZv-289" target="wkMadTR8w1mrKC2IVPZv-290">
          <mxGeometry relative="1" as="geometry" />
        </mxCell>
        <mxCell id="wkMadTR8w1mrKC2IVPZv-289" value="&lt;font style=&quot;font-size: 24px;&quot;&gt;Browser&lt;/font&gt;" style="shape=umlActor;verticalLabelPosition=bottom;verticalAlign=top;html=1;outlineConnect=0;" vertex="1" parent="1">
          <mxGeometry x="202.5" y="1476" width="30" height="60" as="geometry" />
        </mxCell>
        <mxCell id="wkMadTR8w1mrKC2IVPZv-293" style="edgeStyle=orthogonalEdgeStyle;rounded=0;orthogonalLoop=1;jettySize=auto;html=1;exitX=1;exitY=0.5;exitDx=0;exitDy=0;entryX=0;entryY=0.5;entryDx=0;entryDy=0;" edge="1" parent="1" source="wkMadTR8w1mrKC2IVPZv-290" target="wkMadTR8w1mrKC2IVPZv-278">
          <mxGeometry relative="1" as="geometry" />
        </mxCell>
        <mxCell id="wkMadTR8w1mrKC2IVPZv-290" value="&lt;font style=&quot;font-size: 24px;&quot;&gt;DNS&lt;/font&gt;" style="shape=process;whiteSpace=wrap;html=1;backgroundOutline=1;fillColor=#f5f5f5;strokeColor=#666666;fontColor=#333333;" vertex="1" parent="1">
          <mxGeometry x="303.5" y="1476" width="120" height="60" as="geometry" />
        </mxCell>
        <mxCell id="wkMadTR8w1mrKC2IVPZv-291" value="dasi.plus" style="text;html=1;align=center;verticalAlign=middle;resizable=0;points=[];autosize=1;strokeColor=none;fillColor=none;" vertex="1" parent="1">
          <mxGeometry x="331" y="1444" width="65" height="26" as="geometry" />
        </mxCell>
        <mxCell id="wkMadTR8w1mrKC2IVPZv-292" value="&lt;font style=&quot;font-size: 14px;&quot;&gt;172.16.129.10&lt;/font&gt;" style="text;html=1;align=center;verticalAlign=middle;whiteSpace=wrap;rounded=0;" vertex="1" parent="1">
          <mxGeometry x="160" y="1440" width="115" height="30" as="geometry" />
        </mxCell>
      </root>
    </mxGraphModel>
  </diagram>
</mxfile>
